# xmcd CD database file
#
# Track frame offsets:
#	150
#	29290
#	55335
#
# Disc length: 1122 seconds
#
# Revision: 2
# Processed by: cddbd v1.5PL3 Copyright (c) Steve Scherf et al.
# Submitted via: CDex 1.50beta9
#
DISCID=1f046003
DTITLE=globe - FACES PLACES
DYEAR=1997
DGENRE=J-POP
TTITLE0=FACES PLACES (Straight Run)
TTITLE1=FACES PLACES (Dr. Distorto's Mix)
TTITLE2=FACES PLACES (Instrumental)
EXTD=YEAR: 1997
EXTT0=
EXTT1=
EXTT2=
PLAYORDER=
